<?xml version="1.0" encoding="UTF-8"?>
<svg width="107px" height="24px" viewBox="0 0 107 24" version="1.1" xmlns="http://www.w3.org/2000/svg" xmlns:xlink="http://www.w3.org/1999/xlink">
    <title>Logo/orange</title>
    <g id="Logo/orange" stroke="none" stroke-width="1" fill="none" fill-rule="evenodd">
        <g id="QVEST-Logo-CMYK-2021-BLACK" fill="#FF8800" fill-rule="nonzero">
            <polygon id="XMLID_34_" points="31.4614547 21.9973034 23.1351351 1.46898723e-15 30.8727251 1.46898723e-15 35.7507709 14.8853933 40.6288167 0 48.1981982 0 39.9559828 22.08 31.4614547 22.08"></polygon>
            <polygon id="Path" points="66.5135135 5.62337079 66.5135135 0 49.1621622 0 49.1621622 22.08 66.5135135 22.08 66.5135135 16.4566292 55.9480867 16.4566292 55.9480867 13.7276404 66.2558202 13.7276404 66.2558202 8.10426966 55.9480867 8.10426966 55.9480867 5.62337079"></polygon>
            <path d="M78.8163078,8.21061818 C76.6923194,7.79170909 75.3035578,7.54036364 75.3035578,6.53498182 C75.3035578,5.61338182 75.9570927,5.19447273 77.2641625,5.19447273 C79.5515346,5.19447273 81.9205986,6.03229091 83.7178195,7.3728 L86.985494,2.93236364 C84.5347381,1.00538182 81.4304474,0 77.9176974,0 C71.7908078,0 68.9315926,3.77018182 68.9315926,7.28901818 C68.9315926,13.0699636 74.3232555,14.0753455 77.9176974,14.6618182 C79.878302,14.9969455 81.3487555,15.2482909 81.3487555,16.2536727 C81.3487555,17.1752727 80.2867613,17.7617455 78.5712322,17.7617455 C75.0584822,17.7617455 72.6894182,16.0861091 71.4640403,14.9969455 L68.4414414,19.6887273 C70.9738891,21.9508364 74.2415636,23.04 78.4078485,23.04 C84.2896625,23.04 87.7207207,20.1914182 87.7207207,15.4158545 C87.7207207,9.97003636 82.5741335,8.96465455 78.8163078,8.21061818 Z" id="Path"></path>
            <polygon id="XMLID_28_" points="94.5717503 22.08 94.5717503 5.81052632 88.6846847 5.81052632 88.6846847 0 107 0 107 5.81052632 101.194699 5.81052632 101.194699 22.08"></polygon>
            <path d="M21.3755708,18.8041237 C23.1912563,16.8247423 24.0990991,14.2680412 24.0990991,11.3814433 C24.0990991,4.78350515 19.0646983,0 12.0495495,0 C5.116932,0 0,4.78350515 0,11.3814433 C0,17.9793814 5.03440084,22.7628866 12.0495495,22.7628866 C13.5351105,22.7628866 15.0206714,22.5154639 16.3411699,22.1030928 L16.4237011,22.1030928 L17.9917932,24 L22.3659447,20.4536082 L21.2105085,18.9690722 L21.3755708,18.8041237 Z M17.2490127,13.443299 L17.1664816,13.6907216 L15.4333272,11.4639175 L11.0591756,15.0103093 L12.7097988,17.0721649 L12.1320807,17.0721649 C8.91336542,17.0721649 6.6024929,14.6804124 6.6024929,11.2989691 C6.6024929,8 8.91336542,5.5257732 12.1320807,5.5257732 C15.350796,5.5257732 17.6616685,7.91752577 17.6616685,11.2989691 C17.5791374,12.1237113 17.4966062,12.8659794 17.2490127,13.443299 Z" id="Shape"></path>
        </g>
    </g>
</svg>